PathFileType	4	(X/Y/Z)	C:/Users/beibeiliu/ov580/test_trc/User3\sequence.45_training_dense_left.trc
DataRate	CameraRate	NumFrames	NumMarkers	Units	OrigDataRate	OrigDataStartFrame	OrigNumFrames
120	120	9	19	mm	120	81	107
Frame#	Time	ThumbCMC			ThumbMCP			ThumbIP			ThumbTip			IndexMCP			IndexPIP			IndexTip			MiddleMCP			MiddlePIP			MiddleTip			RingMCP			RingPIP			RingTip			PinkyMCP			PinkyPIP			PinkyTip			BackHand1			BackHand2			BackHand3	
		X0	Y0	Z0	X1	Y1	Z1	X2	Y2	Z2	X3	Y3	Z3	X4	Y4	Z4	X5	Y5	Z5	X6	Y6	Z6	X7	Y7	Z7	X8	Y8	Z8	X9	Y9	Z9	X10	Y10	Z10	X11	Y11	Z11	X12	Y12	Z12	X13	Y13	Z13	X14	Y14	Z14	X15	Y15	Z15	X16	Y16	Z16	X17	Y17	Z17	X18	Y18	Z18	
80	0.666667	-115.799	20.3445	68.2576	-86.8689	34.7241	59.4116	-60.3789	27.5492	42.7122	-44.5872	8.70914	37.324	-83.8969	1.8472	-2.95712	-50.8108	0.0780478	-3.34509	-34.7115	2.17325	23.5621	-82.698	-20.2629	-3.30922	-48.7784	-22.1811	1.04176	-41.4005	-20.0085	37.0956	-84.3305	-36.0858	8.74397	-54.9079	-38.6351	15.7069	-52.8302	-29.7357	50.2967	-84.775	-57.5959	23.0152	-62.7934	-50.63	32.5298	-63.365	-41.0298	61.1988	-134.019	-37.0981	33.515	-150.061	-30.8143	62.028	-139.97	-0.729398	47.7249	
81	0.675	-129.045	25.8511	67.0527	-100.896	37.6355	52.7651	-75.346	36.0141	35.5875	-58.6269	16.6193	28.8339	-102.755	7.31029	-5.92385	-71.3862	6.78396	-13.3446	-51.6623	6.35223	14.4837	-97.1279	-11.5896	-9.18297	-63.6327	-9.96669	-6.93534	-56.357	-15.2127	31.2064	-96.6288	-33.7201	3.28068	-66.5975	-34.9561	8.26905	-64.9665	-22.628	43.5764	-94.6687	-48.1961	16.2957	-70.8752	-43.8501	24.7659	-72.4279	-35.7495	55.641	-144.309	-37.1465	34.6049	-157.292	-37.6088	60.9425	-150.727	-2.34006	46.2542	
82	0.683333	-149.742	24.5215	65.511	-128.632	40.1812	50.6379	-103.799	42.0652	26.4134	-89.1443	23.8098	16.158	-134.373	11.5579	-12.0041	-104.473	17.0048	-23.5823	-82.4397	16.138	0.840857	-128.007	-9.27083	-13.3263	-91.3546	-2.80228	-16.1165	-83.0503	-4.73892	21.1849	-120.024	-28.5159	-5.20144	-89.8405	-26.6028	-3.01048	-86.1391	-13.4139	28.722	-117.788	-46.1483	11.4679	-89.2994	-38.7434	11.9927	-87.8679	-28.5572	39.8774	-160.997	-34.7397	32.6099	-171.169	-37.7826	63.3159	-171.859	-6.66361	50.2698	
83	0.691667	-175.435	17.9218	69.0703	-165.307	41.6342	44.215	-152.113	43.7913	16.5329	-135.583	29.421	-0.490483	-184.1	5.97202	-10.4813	-159.719	15.1117	-32.0542	-134.269	22.8294	-13.2707	-172.859	-15.5989	-19.8912	-143.853	-4.70613	-30.2427	-126.48	0.310707	1.99877	-161.964	-30.6289	-9.46814	-133.302	-21.956	-18.8258	-122.464	-10.8311	13.4663	-148.467	-47.9182	3.37282	-124.224	-36.1312	-3.83648	-119.446	-18.6784	21.9573	-183.065	-44.6158	39.0813	-182.024	-48.0651	70.8856	-195.767	-14.1493	56.8368	
84	0.7	-201.694	13.309	66.5787	-205.027	31.8857	39.2655	-208.6	40.6314	9.94367	-198.239	24.2923	-12.1196	-240.513	-11.591	5.00343	-226.894	-1.03406	-26.632	-202.251	14.1988	-19.6502	-232.867	-28.3186	-7.42135	-216.23	-19.2197	-32.2973	-185.166	-3.25052	-10.7979	-213.757	-44.1256	-5.42551	-193.559	-27.6569	-25.0684	-174.462	-13.0557	-2.00844	-196.252	-53.4083	0.165008	-177.483	-40.9767	-16.0955	-164.666	-20.2932	1.10619	-209.469	-55.5975	50.2328	-191.895	-51.3205	79.4359	-217.066	-22.5745	70.4338	
85	0.708333	-210.759	15.2669	63.5917	-227.019	24.6592	36.69	-241.282	28.9782	12.183	-245.435	14.8305	-11.4064	-272.812	-21.084	26.4703	-278.144	-16.1142	-3.1132	-250.544	0.393402	-13.6905	-269.529	-38.108	19.2758	-266.216	-28.7718	-14.6047	-233.094	-13.4744	-12.4576	-250.501	-53.7486	11.3741	-244.452	-39.1399	-16.3233	-213.906	-23.049	-7.95874	-231.12	-63.6392	7.74676	-224.355	-49.8999	-13.01	-200.019	-27.0779	-8.39885	-220.388	-54.5208	61.7238	-199.645	-47.3576	78.9789	-221.151	-19.0063	79.6761	
86	0.716667	-203.422	21.8612	53.1269	-222.559	33.4742	26.6182	-238.712	38.6942	3.67953	-248.394	16.0759	-19.1288	-271.648	-9.34591	27.9373	-284.002	-2.97462	-4.10727	-254.007	7.02672	-18.5015	-269.856	-30.3676	20.5779	-274.467	-23.6566	-11.7676	-233.717	-11.1554	-17.9159	-255.497	-41.8748	12.649	-248.153	-35.4158	-18.5079	-221.417	-21.9378	-17.7706	-237.534	-53.8889	11.3094	-233.448	-42.6208	-14.5134	-208.243	-29.2437	-17.8152	-218.787	-43.1034	59.055	-198.708	-37.2356	74.6105	-218.267	-7.00206	73.8081	
87	0.725	-177.581	35.0449	37.6898	-187.224	47.9074	6.91596	-197.462	46.2518	-19.5724	-199.685	28.0329	-41.5519	-242.611	10.4206	-5.70824	-243.733	13.159	-37.7391	-210.38	19.5896	-45.212	-241.665	-8.81033	-12.9962	-233.288	-5.27674	-44.9292	-195.941	1.17277	-39.9725	-224.849	-29.4195	-13.3916	-212.024	-23.0008	-41.5441	-181.037	-10.6501	-32.7229	-208.837	-41.557	-8.52741	-195.194	-36.2784	-34.5457	-171.473	-22.5266	-29.3964	-205.758	-28.9051	41.7915	-183.728	-25.6034	64.161	-201.457	6.99669	53.8532	
88	0.733333	-145.203	43.8846	24.1532	-134.533	54.5888	-3.22888	-126.582	57.2159	-36.2291	-119.711	28.3971	-46.799	-176.08	21.5691	-42.7764	-158.994	24.6968	-74.9126	-129.853	23.5192	-67.1862	-173.511	-1.69636	-52.6981	-148.207	-0.230157	-73.8646	-118.79	6.48956	-54.0612	-161.107	-20.86	-40.1658	-137.162	-17.6229	-59.4731	-112.085	-8.92394	-38.8931	-152.63	-33.6792	-29.3505	-129.964	-31.4379	-44.2077	-107.432	-20.9772	-28.2715	-175.741	-15.0978	15.318	-170.68	-15.7639	43.2012	-175.136	19.1071	22.0016	
